<?xml version="1.0" encoding="utf-8"?>
<!-- Generator: Adobe Illustrator 17.0.0, SVG Export Plug-In . SVG Version: 6.00 Build 0)  -->
<!DOCTYPE svg PUBLIC "-//W3C//DTD SVG 1.1//EN" "http://www.w3.org/Graphics/SVG/1.1/DTD/svg11.dtd">
<svg version="1.1" id="Слой_1" xmlns="http://www.w3.org/2000/svg" xmlns:xlink="http://www.w3.org/1999/xlink" x="0px" y="0px"
	 width="44.872px" height="198.312px" viewBox="44.872 61.568 44.872 198.312"
	 enable-background="new 44.872 61.568 44.872 198.312" xml:space="preserve">
<g id="Слой_x0020_1">
	<path fill="#FEFEFE" d="M66.898,125.773l-14.4,11.197l29.622-1.361L66.898,125.773z M84.869,259.88h0.17l-1.162-28.857
		c3.402-1.559,5.868-4.195,5.868-8.334l0,0c0-3.402-1.446-6.973-4.054-8.759c-0.454-4.479-0.737-10.12-1.106-14.967l3.713-0.283
		l-1.162-28.517h-6.746v5.443c-2.75,0.34-25.654,2.183-33.335,2.976c0,0,0.567,4.791,0.85,7.342
		c3.713-0.283,8.702-0.709,13.861-1.077l0.935,8.192l6.605-0.624l-0.935-7.994c4.847-0.283,9.269-0.482,12.019-0.482
		c0.085,1.843,0.283,6.548,0.51,10.261c-4.139,0.198-11.395,0.624-14.343,0.765c-3.997,0.227-8.844,1.02-11.82,2.211
		c-0.283-1.843-0.595-3.628-0.794-5.272c-2.098,0.227-4.507,0.425-6.69,0.794c0.822,5.329,1.672,14.117,1.814,19.729l7.03-0.567
		c-0.142-2.494-0.34-5.187-0.652-7.824c1.02-0.142,3.855-0.425,7.115-0.794l1.304,8.561l6.945-0.737l-1.644-8.532
		c3.77-0.368,7.087-0.652,8.022-0.709c0.51,3.118,0.964,7.058,1.332,11.254c-11.395,1.843-16.753,12.813-22.62,12.813
		c-1.304,0-2.183-1.049-2.183-2.353c0-2.069,3.118-4.054,5.641-4.847l-2.381-6.321c-6.009,1.417-10.715,5.698-10.715,11.82
		c0,4.62,3.628,9.411,8.249,9.411c12.104,0,16.894-13.039,25.002-13.039c1.616,0,2.92,0.624,2.92,2.268
		c0,2.069-4.932,3.005-7.767,3.005l0.369,6.917c0.652,0,1.361,0,2.098-0.085l0.283,6.831l-30.217-1.134v8.419l30.444,0.992v11.395
		L84.869,259.88z M61.682,157.209c2.92,0,9.128-0.85,10.658-1.559c-0.567,0.907-2.239,2.636-3.118,3.061
		c3.855-0.794,7.398-2.636,10.148-2.636c-1.956,1.219-6.094,5.698-7.739,6.69h3.118c-3.43,3.061-8.277,5.074-12.756,5.074
		c-4.139,0-7.03-2.296-7.03-5.641C54.964,159.279,57.713,157.209,61.682,157.209L61.682,157.209z M54,147.09l-7.228,0.935
		c-0.085,1.332-0.085,2.636-0.085,3.912c0,13.748,3.203,23.216,16.441,23.216c14.882,0,22.847-14.882,23.868-29.849l-7.767,0.368
		c-0.142,0.907-0.227,2.835-0.425,3.685h-6.52c-6.378,0-12.983,0.142-18.283,2.721V147.09z M89.15,97.2l-4.195,1.304l4.365,1.843
		l-2.92,5.187l-7.398-3.487l-23.981,7.852l11.083,7.058l13.72-10.12l4.62,6.321l-11.877,8.22l14.343,7.682l-2.976,7.625l0.595,7.625
		H47.991l-0.567-7.115l1.786-0.085l-3.543-5.698l14.797-10.035l-13.55-7.058l1.219-2.211l-1.446-9.354l5.301-1.134l-0.595-8.05
		h6.661l0.595,6.69l12.756-2.835l-24.293-8.277V64.063l5.386-2.494l23.329,16.129V61.568h9.354l-0.935,24.094l-6.094,1.276
		L54.595,71.546l0.85,12.472l24.208,10.063l7.2-3.005L89.15,97.2z"/>
</g>
</svg>
