<?xml version="1.0" encoding="UTF-8"?>
<!DOCTYPE svg PUBLIC "-//W3C//DTD SVG 1.1//EN" "http://www.w3.org/Graphics/SVG/1.1/DTD/svg11.dtd">
<!-- Creator: CorelDRAW X7 -->
<svg xmlns="http://www.w3.org/2000/svg" xml:space="preserve" width="210mm" height="297mm" version="1.1" style="shape-rendering:geometricPrecision; text-rendering:geometricPrecision; image-rendering:optimizeQuality; fill-rule:evenodd; clip-rule:evenodd"
viewBox="0 0 21000 29700"
 xmlns:xlink="http://www.w3.org/1999/xlink">
 <defs>
  <style type="text/css">
   <![CDATA[
    .fil0 {fill:#212124;fill-rule:nonzero}
   ]]>
  </style>
 </defs>
 <g id="Слой_x0020_1">
  <metadata id="CorelCorpID_0Corel-Layer"/>
  <path class="fil0" d="M6520 3013l743 958 -90 -1969 -653 1011zm8903 -1193l0 -10 -1915 77c-104,-226 -279,-390 -554,-390l0 0c-227,0 -463,96 -582,270 -298,28 -672,48 -993,72l-19 -246 -1893 77 0 448 360 0c24,183 147,1703 199,2213 0,0 317,-38 487,-57 -19,-246 -47,-578 -71,-919l544 -63 -43 -438 -529 63c-19,-323 -34,-616 -34,-799 123,-5 436,-19 682,-34 14,274 42,756 52,953 14,265 66,587 146,784 -123,20 -241,39 -350,53 15,140 29,299 52,443 355,-53 937,-111 1311,-120l-38 -467c-166,10 -345,24 -520,43 -10,-67 -29,-255 -52,-471l567 -87 -47 -462 -568 111c-23,-251 -42,-472 -47,-534 208,-34 468,-63 747,-87 123,756 852,1112 852,1501 0,87 -71,145 -156,145 -137,0 -270,-207 -322,-376l-421 159c95,400 379,712 786,712 307,0 624,-240 624,-548 0,-804 -866,-1121 -866,-1660 0,-106 43,-193 152,-193 137,0 198,327 198,515l459 -24c0,-43 0,-91 -5,-140l455 -19 -76 2007 558 0 66 -2021 757 0 47 -481zm-6817 1539c0,-192 -56,-606 -104,-707 62,38 175,149 204,207 -52,-255 -175,-491 -175,-674 80,130 378,404 444,515l0 -207c204,226 336,549 336,847 0,274 -151,467 -374,467 -193,0 -331,-183 -331,-448l0 0zm-672 511l62 481c90,5 175,5 260,5 913,0 1543,-212 1543,-1093 0,-986 -989,-1516 -1983,-1583l24 515c61,9 189,14 246,29l0 433c0,423 9,861 180,1213l-332 0zm-3311 -2334l85 279 123 -289 345 192 -232 491 521 1593 468 -736 -672 -910 422 -308 544 790 511 -953 506 197 506 -38 0 2425 -473 38 -5 -120 -378 236 -667 -982 -469 900 -146 -82 -620 97 -76 -352 -534 39 0 -443 444 -39 -189 -846 -549 1612 -1665 0 -166 -356 1069 -1550 -1069 0 0 -621 1599 63 86 404 -1022 1564 828 -58 667 -1607 -199 -476 407 -154z"/>
 </g>
</svg>
